# xmcd
# 
# Track frame offsets:
#     150
#     9832
#     27227
#     55675
#     74842
#     87447
#     109155
#     128197
#     145970
#     164275
#     187792
# 
# Disc length: 2664
# 
# Revision: 12
# Processed by: cddbd v1.5.2PL0 Copyright (c) Steve Scherf et al.
# Submitted via: fre:ac v1.0.31
# 
DISCID=900a660b
DTITLE=Suzanne Vega - Solitude Standing
DYEAR=1987
DGENRE=11-American Folk
TTITLE0=Tom's Diner
TTITLE1=Luka
TTITLE2=Ironbound Fancy Poultry
TTITLE3=In The Eye
TTITLE4=Night Vision
TTITLE5=Solitude Standing
TTITLE6=Calypso
TTITLE7=Language
TTITLE8=Gypsy
TTITLE9=Wooden Horse (Caspar Hauser's Song)
TTITLE10=Tom's Diner (Reprise)
EXTD=Informations\n\nU.S.A. original CD\nlabel - A and M Records\nnumber - CD 5136\nyear - 1987\nnote - \n
EXTT0=
EXTT1=
EXTT2=
EXTT3=
EXTT4=
EXTT5=
EXTT6=
EXTT7=
EXTT8=
EXTT9=
EXTT10=
PLAYORDER=
